<svg xmlns="http://www.w3.org/2000/svg" xmlns:xlink="http://www.w3.org/1999/xlink" viewBox="0 0 348.48 348.48"><defs><style>.cls-1{fill:none;}.cls-2,.cls-7{fill:#3c2eaf;}.cls-3{fill:#fff;}.cls-4{fill:#c8e6eb;}.cls-5{clip-path:url(#clip-path);}.cls-6{fill:#a5c8cd;}.cls-7{font-size:25px;font-family:Dosis-ExtraBold, Dosis;font-weight:700;}.cls-8{fill:#323c3c;}.cls-9{fill:#55696e;}.cls-10{fill:#695a6e;}.cls-11{fill:#3c142d;}</style><clipPath id="clip-path"><circle class="cls-1" cx="174.24" cy="174.24" r="128.54" transform="translate(-72.17 174.24) rotate(-45)"/></clipPath></defs><title>OBJECTS</title><g id="Layer_2" data-name="Layer 2"><g id="OBJECTS"><circle class="cls-2" cx="174.24" cy="174.24" r="174.24" transform="translate(-72.17 174.24) rotate(-45)"/><circle class="cls-3" cx="174.24" cy="174.24" r="165.17" transform="translate(-72.17 174.24) rotate(-45)"/><circle class="cls-4" cx="174.24" cy="174.24" r="128.54" transform="translate(-72.17 174.24) rotate(-45)"/><g class="cls-5"><path class="cls-6" d="M174.24,62.9c-28.14,0-50.95,5.93-50.95,13.24l-6.47,46.39c-30.35,5-50.53,13.75-50.53,23.76v5.45c0,8.26,13.73,15.69,35.57,20.82A108.35,108.35,0,0,0,88.53,178h0c-.59.29-1.18.59-1.75.89l-.17.08-1.59.85-.29.16-1.47.83-.35.2-1.37.83-.4.25c-.43.27-.86.54-1.28.82l-.45.29-1.2.81-.47.33-1.13.82-.49.36-1.06.82-.5.4-1,.82L73,188l-.94.83-.51.46-.89.84-.51.49-.84.84-.51.52-.78.85c-.17.19-.34.37-.5.56s-.5.56-.74.85l-.49.59-.69.86c-.16.2-.32.41-.47.62s-.44.57-.65.86-.3.44-.46.65l-.6.88-.44.68c-.19.29-.37.59-.55.88s-.29.48-.43.72l-.51.89c-.14.24-.27.49-.4.74s-.32.6-.47.9-.26.52-.38.78-.29.6-.43.91-.24.53-.36.81l-.39.91-.33.84c-.11.31-.23.61-.34.92s-.21.59-.31.88-.21.62-.3.93-.19.61-.28.92-.18.61-.27.93l-.24.95c-.08.31-.16.62-.23.93s-.14.67-.21,1-.13.61-.19.92-.12.7-.18,1.06-.11.61-.15.92-.1.74-.15,1.11-.08.6-.11.9-.08.81-.12,1.21,0,.56-.07.84c0,.46-.06.93-.08,1.39,0,.24,0,.47,0,.72,0,.7,0,1.42,0,2.14L83,253.92c-8.1,4.62-13.32,9.63-13.32,14.85l66.12,66.13a165.31,165.31,0,0,0,203-146.83L224,73.27l0,0C219,67.35,198.62,62.9,174.24,62.9Z"/></g><text class="cls-7" transform="matrix(0.77, -0.64, 0.64, 0.77, 80.93, 74.61)">D</text><text class="cls-7" transform="matrix(0.83, -0.56, 0.56, 0.83, 91.89, 65.4)">E</text><text class="cls-7" transform="matrix(0.88, -0.48, 0.48, 0.88, 102.65, 58)">V</text><text class="cls-7" transform="translate(115.38 51.24) rotate(-24.56)"> </text><text class="cls-7" transform="translate(119.6 49.14) rotate(-20.73)">J</text><text class="cls-7" transform="translate(131.99 44.41) rotate(-14.93)">O</text><text class="cls-7" transform="translate(145.63 40.75) rotate(-9.03)">B</text><text class="cls-7" transform="matrix(1, -0.09, 0.09, 1, 159.48, 38.7)"> </text><text class="cls-7" transform="translate(164.28 38.25) rotate(-2.75)">I</text><text class="cls-7" transform="matrix(1, 0.03, -0.03, 1, 170.54, 37.77)">N</text><text class="cls-7" transform="translate(185.58 38.24) rotate(7.49)">S</text><text class="cls-7" transform="translate(198.38 39.88) rotate(13.12)">P</text><text class="cls-7" transform="translate(211.82 43.01) rotate(18.81)">E</text><text class="cls-7" transform="translate(224.03 47.12) rotate(24.37)">C</text><text class="cls-7" transform="translate(236.44 52.73) rotate(30.01)">T</text><text class="cls-7" transform="matrix(0.81, 0.58, -0.58, 0.81, 247.61, 59.12)">O</text><text class="cls-7" transform="translate(259.11 67.33) rotate(41.53)">R</text><path class="cls-8" d="M173.72,163.05c-65.35.09-118.25,16.67-118.25,63.35,0,0,21,7.51,45.43,19.37-17.5,6.63-31.23,14.52-31.23,23,0,0,85.27,25.39,104.05,49.51Z"/><path class="cls-9" d="M92.12,241.61c-20.44-9.43-36.65-15.21-36.65-15.21,0-22.77,12.58-38.39,33.06-48.43-9,5.61-15.82,10.84-20,19.71s4.5,22.58,13.17,26.91c4.82,2.41,10.69,5.38,17.06,8.68a12,12,0,0,1,1,20.72c-1.66,1.06-3.21,2.1-4.63,3.08a6.62,6.62,0,0,0,.86,11.4c21,10.21,68.56,34.48,77.78,49.81-13-16.14-104-49.51-104-49.51,0-7,9.33-13.58,22.41-19.39A4.27,4.27,0,0,0,92.12,241.61Z"/><path class="cls-8" d="M173.72,163.05c65.35.09,118.25,16.78,118.25,63.46,0,0-21.06,7.51-45.44,19.37,17.5,6.63,31.24,14.52,31.24,23,0,0-85.28,25.28-104,49.4Z"/><path class="cls-9" d="M255.31,241.72c20.44-9.43,36.66-15.21,36.66-15.21,0-22.77-12.59-38.39-33.07-48.43,9,5.61,15.82,10.84,20,19.71s-4.5,22.58-13.17,26.91c-4.82,2.41-10.69,5.38-17,8.68a12,12,0,0,0-1,20.72c1.66,1.06,3.21,2.1,4.63,3.08a6.62,6.62,0,0,1-.86,11.4c-21,10.21-68.56,34.37-77.77,49.7,11.65-14.2,104-49.4,104-49.4,0-7-9.34-13.58-22.42-19.39A4.27,4.27,0,0,1,255.31,241.72Z"/><path class="cls-3" d="M242.8,171.13l-.88-2.88h-135l-.88,2.88a8.28,8.28,0,0,0,4.79,10.08l1.23.5A12.07,12.07,0,0,1,119.3,191v0a19.07,19.07,0,0,0,18.77,15.75h6.81a19,19,0,0,0,19.05-18.95,5.15,5.15,0,0,1,4.45-5.17,41.29,41.29,0,0,1,5.88-.29h.29a41.29,41.29,0,0,1,5.88.29,5.15,5.15,0,0,1,4.45,5.17,19,19,0,0,0,19.05,18.95h6.81a19.07,19.07,0,0,0,18.77-15.75v0a12.07,12.07,0,0,1,7.27-9.33l1.23-.5A8.28,8.28,0,0,0,242.8,171.13Z"/><rect class="cls-10" x="66.46" y="146.29" width="215.89" height="5.46"/><ellipse class="cls-8" cx="174.4" cy="151.74" rx="107.95" ry="28.06"/><ellipse class="cls-9" cx="174.4" cy="146.29" rx="107.95" ry="28.06"/><ellipse class="cls-11" cx="174.4" cy="140.83" rx="59.97" ry="15.59"/><path class="cls-8" d="M234.23,139.81l-8.88-63.67H123.45l-8.87,63.67a4,4,0,0,0-.15,1c0,8.61,26.85,15.59,60,15.59s60-7,60-15.59A4,4,0,0,0,234.23,139.81Z"/><path class="cls-2" d="M231.46,119.92c-7.8,6.25-30.39,10.78-57.06,10.78s-49.25-4.53-57.05-10.78l-2.77,19.89a4,4,0,0,0-.15,1c0,8.61,26.85,15.59,60,15.59s60-7,60-15.59a4,4,0,0,0-.14-1Z"/><ellipse class="cls-9" cx="174.4" cy="76.14" rx="50.95" ry="13.24"/><path class="cls-9" d="M92.73,176.19S79.22,185.83,91,210.31c6.56,13.65,25.87,23.13,49.32,39,18.15,12.26,31.47,22.47,43.45,33.8a15.46,15.46,0,0,1,1.3,21c-7.29,8.83-16.62,20.45-18.23,23.92,0,0-22.88-31.26-88-55.77,0,0,2.74-3.36,9.34-10.62s21.8-10.24,12.22-19.49S61,225,61.36,220.06,56.32,192.63,92.73,176.19Z"/><path class="cls-2" d="M227.58,310.5a3,3,0,1,1-3.87-1.8A3,3,0,0,1,227.58,310.5Z"/><path class="cls-2" d="M271.32,284a3,3,0,1,1-4.26-.37A3,3,0,0,1,271.32,284Z"/><path class="cls-2" d="M48.46,97a3,3,0,1,1-4.13,1.11A3,3,0,0,1,48.46,97Z"/><path class="cls-2" d="M303.37,244.21a3,3,0,1,1-4.13,1.1A3,3,0,0,1,303.37,244.21Z"/><path class="cls-2" d="M30,144.7a3,3,0,1,1-3.5,2.46A3,3,0,0,1,30,144.7Z"/><path class="cls-2" d="M319.87,195.82a3,3,0,1,1-3.5,2.45A3,3,0,0,1,319.87,195.82Z"/><path class="cls-2" d="M28.94,195.82a3,3,0,1,1-2.45,3.5A3,3,0,0,1,28.94,195.82Z"/><path class="cls-2" d="M318.82,144.7a3,3,0,1,1-2.45,3.51A3,3,0,0,1,318.82,144.7Z"/><path class="cls-2" d="M45.44,244.21a3,3,0,1,1-1.11,4.13A3,3,0,0,1,45.44,244.21Z"/><path class="cls-2" d="M300.35,97a3,3,0,1,1-1.11,4.13A3,3,0,0,1,300.35,97Z"/><path class="cls-2" d="M77.49,284a3,3,0,1,1,.37,4.26A3,3,0,0,1,77.49,284Z"/><path class="cls-2" d="M121.23,310.5a3,3,0,1,1,1.8,3.88A3,3,0,0,1,121.23,310.5Z"/></g></g></svg>